<svg xmlns="http://www.w3.org/2000/svg" xmlns:xlink="http://www.w3.org/1999/xlink" width="60.422" height="47.428" viewBox="0 0 60.422 47.428">
  <defs>
    <filter id="Background" x="0" y="0" width="60.422" height="47.428" filterUnits="userSpaceOnUse">
      <feOffset dx="2" dy="2" input="SourceAlpha"/>
      <feGaussianBlur stdDeviation="2.5" result="blur"/>
      <feFlood flood-opacity="0.161"/>
      <feComposite operator="in" in2="blur"/>
      <feComposite in="SourceGraphic"/>
    </filter>
  </defs>
  <g id="Amex" transform="translate(5.498 5.5)">
    <g id="Background-2" data-name="Background" transform="translate(0.002 0)">
      <g transform="matrix(1, 0, 0, 1, -5.5, -5.5)" filter="url(#Background)">
        <rect id="Background-3" data-name="Background" width="45.422" height="32.428" rx="4" transform="translate(5.5 5.5)" fill="#2aa0d0"/>
      </g>
    </g>
    <g id="Logo" transform="translate(0.002 8.113)">
      <path id="Logo-2" data-name="Logo" d="M18.127,16.7,17.1,15.516,16.015,16.7H9.447V9.072h6.7l.988,1.168,1.056-1.168H22.8a2.821,2.821,0,0,1,1.787.447V9.072h4.137a3.266,3.266,0,0,1,1.723.447V9.072H36.43v.447a2.384,2.384,0,0,1,1.527-.447h3.5v.447a2.625,2.625,0,0,1,1.6-.447h2.366v.954H43.009a1.7,1.7,0,0,0-1.834,1.762c0,1.73,1.5,1.651,2.7,1.692a.64.64,0,0,1,.451.121.453.453,0,0,1,.156.362c0,.149-.062.183-.151.267a.715.715,0,0,1-.517.135H41.174v1.366H43.82a1.8,1.8,0,0,0,1.616-.8l-.014,1.421a4.359,4.359,0,0,1-1.875.351H40.235v-.488a2.93,2.93,0,0,1-1.74.488H28.32V14.939c0-.216-.021-.226-.233-.226h-.166V16.7H24.588V14.6a4.8,4.8,0,0,1-1.884.313h-.41v1.795Zm10.11-3.1c.467,0,.751.047.938.243.238.254.192.771.192,1.1v.8h1.3v-1.2a1.618,1.618,0,0,0-.212-1,1.391,1.391,0,0,0-.626-.459,1.531,1.531,0,0,0,.906-1.455,1.514,1.514,0,0,0-.657-1.348,3.1,3.1,0,0,0-1.538-.258H25.572v5.722H26.93V13.6Zm7.749,2.132h2.623c1.289,0,2.008-.653,2.008-1.83a1.54,1.54,0,0,0-.382-1.158,2.03,2.03,0,0,0-1.459-.44l-.688-.019a1.435,1.435,0,0,1-.5-.062.381.381,0,0,1-.28-.378.313.313,0,0,1,.192-.319.839.839,0,0,1,.512-.128h2.641V10.027H37.8a1.7,1.7,0,0,0-1.828,1.762c0,1.73,1.5,1.651,2.693,1.692a.663.663,0,0,1,.455.121.474.474,0,0,1,.156.362.335.335,0,0,1-.151.282.736.736,0,0,1-.522.136H35.986Zm-4.751,0h4.251V14.39l-2.89-.005V13.356h2.8V12.42H32.6V11.381h2.875V10.026H31.235Zm-12.554,0h2.573V13.794H22.82c1.118,0,2.226-.313,2.226-1.833s-1.14-1.936-2.154-1.936H18.748l-1.626,1.927-1.573-1.927H10.408v5.707h5.064l1.636-1.915ZM17.93,12.9l1.963-2.156v4.384ZM11.8,14.369V13.356h2.806V12.4H11.8V11.366h3.086l1.4,1.519-1.46,1.485Zm33.5-1.684c-.284-.3-.618-.363-1.317-.381l-.693-.019a1.436,1.436,0,0,1-.493-.062.412.412,0,0,1-.279-.408.337.337,0,0,1,.187-.334.87.87,0,0,1,.517-.1h2.2V12.82A.7.7,0,0,0,45.3,12.685Zm-24.049,0V11.292h1.637c.462,0,.782.192.782.67s-.305.722-.8.722Zm5.676-.239v-1.2h1.515a1.237,1.237,0,0,1,.61.1.414.414,0,0,1,.264.417.676.676,0,0,1-.264.57,1.2,1.2,0,0,1-.631.113ZM9.237,7.644l-.385-.934v.93H4.538L4.045,6.423H2.938L2.444,7.64,0,7.637V3.819L1.805,0H5.151l.431.9V0H9.506l.858,1.973L11.2,0H22.919a2.083,2.083,0,0,1,1.449.446V0H27.3V.446A4.363,4.363,0,0,1,29.446,0h4.941l.459.9V0H38.5l.5.9V0h3.58V7.64H38.966l-.681-1.156V7.64h-4.5L33.3,6.423H32.2L31.7,7.64H29.363A4.322,4.322,0,0,1,27.3,7.175V7.64H22.233V5.906c0-.245-.043-.259-.188-.264h-.207l.005,2H11.862V6.7l-.385.948ZM27.658,1.665a3.1,3.1,0,0,0-.692,2.2,2.79,2.79,0,0,0,.686,2.091,2.737,2.737,0,0,0,1.861.7h1.4L31.4,5.238h2.665l.5,1.4h2.805V2.557l2.24,4.081h2.01V.967h-1.4V4.9L37.855.967h-1.88v5.3L33.728.967H31.805L30,5.394h-.473a1.221,1.221,0,0,1-.894-.283,1.928,1.928,0,0,1-.353-1.287,1.834,1.834,0,0,1,.369-1.241,1.221,1.221,0,0,1,.988-.325h1.113V.967H29.607A2.586,2.586,0,0,0,27.658,1.665ZM25.088,6.653h1.4V.982h-1.4Zm-10.424,0h4.228V5.282H16.08V4.292h2.739V3.333H16.08v-1h2.811V.967H14.663Zm-1.872,0h1.374V.967h-2.2L10.427,4.8,8.747.967H6.638V6.272L4.47.967H2.564L.266,6.653H1.66l.5-1.415H4.83l.493,1.415h2.7V2.27L9.8,6.653h1.127l1.86-4.379Zm9.281-2.112a1.231,1.231,0,0,1,.935.264,1.668,1.668,0,0,1,.188,1.067l0,.765h1.368V5.488A1.586,1.586,0,0,0,24.3,4.483a1.494,1.494,0,0,0-.635-.461,1.541,1.541,0,0,0,.9-1.46,1.283,1.283,0,0,0-.649-1.213A2.926,2.926,0,0,0,22.362.967H19.41V6.638H20.8v-2.1Zm9.781-.252.883-2.273.888,2.273Zm-29.237,0,.873-2.273L4.367,4.29ZM20.8,3.354V2.137h1.477a1.294,1.294,0,0,1,.609.1.5.5,0,0,1,.27.484.564.564,0,0,1-.264.521,1.17,1.17,0,0,1-.635.113Z" transform="translate(0 0)" fill="#fff" opacity="0.949"/>
    </g>
    <path id="Glare" d="M82.582,244.439A2.636,2.636,0,0,1,80,241.758V214.69a2.636,2.636,0,0,1,2.587-2.682h40.251a2.636,2.636,0,0,1,2.587,2.682" transform="translate(-79.996 -212.004)" fill="#fff" opacity="0.059"/>
    <rect id="Shadow" width="45.422" height="32.456" rx="4" transform="translate(0.002 0)" fill="rgba(255,255,255,0)"/>
  </g>
</svg>
