<svg xmlns="http://www.w3.org/2000/svg" xmlns:xlink="http://www.w3.org/1999/xlink" width="60.437" height="47.428" viewBox="0 0 60.437 47.428">
  <defs>
    <filter id="Background" x="0" y="0" width="60.437" height="47.428" filterUnits="userSpaceOnUse">
      <feOffset dx="2" dy="2" input="SourceAlpha"/>
      <feGaussianBlur stdDeviation="2.5" result="blur"/>
      <feFlood flood-opacity="0.161"/>
      <feComposite operator="in" in2="blur"/>
      <feComposite in="SourceGraphic"/>
    </filter>
  </defs>
  <g id="Android_Pay" data-name="Android Pay" transform="translate(5.498 5.5)">
    <g id="Background-2" data-name="Background" transform="translate(0.002 0)">
      <g transform="matrix(1, 0, 0, 1, -5.5, -5.5)" filter="url(#Background)">
        <rect id="Background-3" data-name="Background" width="45.437" height="32.428" rx="4" transform="translate(5.5 5.5)" fill="#6cc04a"/>
      </g>
    </g>
    <g id="Logo" transform="translate(13.728 5.024)">
      <path id="Logo-2" data-name="Logo" d="M13.231,21.7v-.866h.311a1.013,1.013,0,0,0,.941-.683l.187-.43-2.348-5.66h.984l1.86,4.643,1.864-4.649h.957l-2.632,6.314A1.9,1.9,0,0,1,13.531,21.7ZM15.377,19.237ZM0,21.688V14.065H.938v.789a2.423,2.423,0,0,1,1.79-.769,2.988,2.988,0,0,1,0,5.973,2.407,2.407,0,0,1-1.79-.775v2.405Zm1-5.843a.342.342,0,0,0-.062.189V18.1a.324.324,0,0,0,.057.189,1.907,1.907,0,0,0,1.671.935,2.15,2.15,0,0,0,0-4.3A1.934,1.934,0,0,0,1,15.846Zm5.177,1.217a2.933,2.933,0,0,1,2.907-2.978,2.4,2.4,0,0,1,1.79.769v-.789h.952v5.873h-.952v-.654a2.425,2.425,0,0,1-1.79.769A2.94,2.94,0,0,1,6.177,17.062Zm.869,0a2.126,2.126,0,0,0,2.1,2.152,1.947,1.947,0,0,0,1.666-.941.347.347,0,0,0,.063-.2V16.041a.367.367,0,0,0-.057-.189,1.882,1.882,0,0,0-1.671-.936A2.125,2.125,0,0,0,7.046,17.062Zm2.417-5.631V9.758h-1.4v1.674a.706.706,0,0,1-.68.729.769.769,0,0,1-.754-.729V9.758H6.363a.708.708,0,0,1-.681-.729l0-4.984.037-.013,6.116.013.007-.013v5a.708.708,0,0,1-.68.729H10.9v1.674a.769.769,0,0,1-.754.729A.706.706,0,0,1,9.463,11.432Zm2.824-3.619V4.752a.723.723,0,1,1,1.446,0V7.813a.723.723,0,1,1-1.446,0ZM3.786,7.8V4.737a.713.713,0,0,1,.708-.728.726.726,0,0,1,.723.728V7.8a.726.726,0,0,1-.723.729A.713.713,0,0,1,3.786,7.8Zm1.9-4.215c0-.034,0-.067,0-.1A1.59,1.59,0,0,1,5.764,3,2.953,2.953,0,0,1,7.221,1.108L6.749.175A.123.123,0,0,1,6.794.014a.107.107,0,0,1,.15.048l.477.944A3.22,3.22,0,0,1,10.1,1l.475-.94a.107.107,0,0,1,.15-.048.123.123,0,0,1,.044.161L10.3,1.1a2.947,2.947,0,0,1,1.488,2,2.783,2.783,0,0,1,.042.294v.187ZM9.871,2.3a.38.38,0,0,0,.305.311.234.234,0,0,0,.231-.236.381.381,0,0,0-.305-.311A.234.234,0,0,0,9.871,2.3ZM7.1,2.376a.237.237,0,0,0,.237.236A.383.383,0,0,0,7.649,2.3a.237.237,0,0,0-.237-.236A.384.384,0,0,0,7.1,2.376Z" transform="translate(0)" fill="#fff"/>
    </g>
    <path id="Glare" d="M218.583,460.439A2.636,2.636,0,0,1,216,457.758V430.69a2.636,2.636,0,0,1,2.588-2.682h40.264a2.636,2.636,0,0,1,2.587,2.682" transform="translate(-215.996 -428.004)" fill="#fff" opacity="0.059"/>
    <path id="Shadow" d="M4.2,0H41.234a4.221,4.221,0,0,1,4.2,4.238V28.218a4.221,4.221,0,0,1-4.2,4.238H4.2A4.221,4.221,0,0,1,0,28.218V4.238A4.221,4.221,0,0,1,4.2,0Z" transform="translate(0.002 0)" fill="rgba(255,255,255,0)"/>
  </g>
</svg>
