<svg xmlns="http://www.w3.org/2000/svg" xmlns:xlink="http://www.w3.org/1999/xlink" width="60.437" height="47.428" viewBox="0 0 60.437 47.428">
  <defs>
    <filter id="Background" x="0" y="0" width="60.437" height="47.428" filterUnits="userSpaceOnUse">
      <feOffset dx="2" dy="2" input="SourceAlpha"/>
      <feGaussianBlur stdDeviation="2.5" result="blur"/>
      <feFlood flood-opacity="0.161"/>
      <feComposite operator="in" in2="blur"/>
      <feComposite in="SourceGraphic"/>
    </filter>
  </defs>
  <g id="Apple_Pay" data-name="Apple Pay" transform="translate(5.498 5.5)">
    <g id="Background-2" data-name="Background" transform="translate(0.002 0)">
      <g transform="matrix(1, 0, 0, 1, -5.5, -5.5)" filter="url(#Background)">
        <rect id="Background-3" data-name="Background" width="45.437" height="32.428" rx="4" transform="translate(5.5 5.5)" fill="#f7f6f4"/>
      </g>
    </g>
    <g id="Logo" transform="translate(17.036 8.105)">
      <path id="Apple_Pay_Logo" data-name="Apple Pay Logo" d="M261.484,236.589a3.253,3.253,0,0,1,1.511-2.729,3.329,3.329,0,0,0-2.554-1.462c-1.087-.112-2.124.746-2.675.746s-1.4-.744-2.305-.725a3.473,3.473,0,0,0-2.89,1.855c-1.227,2.2-.31,5.44.889,7.218.587.868,1.285,1.845,2.205,1.811.886-.036,1.218-.587,2.288-.587s1.37.586,2.3.568c.951-.022,1.556-.886,2.139-1.762a7.921,7.921,0,0,0,.963-2.034,3.164,3.164,0,0,1-1.875-2.9m-2.185-5.322a3.213,3.213,0,0,0,.726-2.286,3.1,3.1,0,0,0-2.056,1.086,3.03,3.03,0,0,0-.739,2.215,2.562,2.562,0,0,0,2.069-1.016" transform="translate(-251.989 -228.981)" fill="#3c3c3c"/>
    </g>
    <path id="Glare" d="M218.583,244.439A2.636,2.636,0,0,1,216,241.758V214.69a2.636,2.636,0,0,1,2.588-2.682h40.264a2.636,2.636,0,0,1,2.587,2.682" transform="translate(-215.996 -212.004)" fill="#fff" opacity="0.078"/>
    <rect id="Shadow" width="45.437" height="32.456" rx="4" transform="translate(0.002 0)" fill="rgba(255,255,255,0)"/>
  </g>
</svg>
