<svg xmlns="http://www.w3.org/2000/svg" xmlns:xlink="http://www.w3.org/1999/xlink" width="18" height="14" viewBox="0 0 18 14">
  <defs>
    <clipPath id="clip-path">
      <path id="Caminho_550" data-name="Caminho 550" d="M.636,1.218H13.364A.623.623,0,0,0,14,.609.623.623,0,0,0,13.364,0H.636A.623.623,0,0,0,0,.609.623.623,0,0,0,.636,1.218Z" fill="#fff" clip-rule="evenodd"/>
    </clipPath>
    <clipPath id="clip-path-2">
      <path id="Caminho_549" data-name="Caminho 549" d="M0,1242.744H424.242V0H0Z" fill="#fff"/>
    </clipPath>
    <clipPath id="clip-path-5">
      <path id="Caminho_553" data-name="Caminho 553" d="M.609,1.218H8.326A.609.609,0,0,0,8.326,0H.609a.609.609,0,0,0,0,1.218Z" fill="#fff" clip-rule="evenodd"/>
    </clipPath>
    <clipPath id="clip-path-6">
      <path id="Caminho_552" data-name="Caminho 552" d="M0,1242.744H406.126V0H0Z" fill="#fff"/>
    </clipPath>
    <clipPath id="clip-path-9">
      <path id="Caminho_556" data-name="Caminho 556" d="M.638,1.218H12.55a.624.624,0,0,0,.638-.609A.624.624,0,0,0,12.55,0H.638A.624.624,0,0,0,0,.609.624.624,0,0,0,.638,1.218Z" fill="#fff" clip-rule="evenodd"/>
    </clipPath>
    <clipPath id="clip-path-10">
      <path id="Caminho_555" data-name="Caminho 555" d="M0,1242.744H425.411V0H0Z" fill="#fff"/>
    </clipPath>
    <clipPath id="clip-path-11">
      <path id="Caminho_559" data-name="Caminho 559" d="M.609,1.218H10.762a.609.609,0,1,0,0-1.218H.609a.609.609,0,1,0,0,1.218Z" fill="#fff" clip-rule="evenodd"/>
    </clipPath>
    <clipPath id="clip-path-13">
      <path id="Caminho_562" data-name="Caminho 562" d="M13.364,0H.636A.623.623,0,0,0,0,.609a.623.623,0,0,0,.636.609H13.364A.623.623,0,0,0,14,.609.623.623,0,0,0,13.364,0Z" fill="#fff" clip-rule="evenodd"/>
    </clipPath>
  </defs>
  <g id="Boleto" transform="translate(-837.219 -41.4)">
    <g id="Grupo_339" data-name="Grupo 339" transform="translate(849.626 41.4) rotate(90)" clip-path="url(#clip-path)">
      <g id="Grupo_338" data-name="Grupo 338" transform="translate(-111.669 -192.666)" clip-path="url(#clip-path-2)">
        <path id="Caminho_548" data-name="Caminho 548" d="M0,0H18.242V5.28H0Z" transform="translate(109.548 190.635)" fill="#fff"/>
      </g>
    </g>
    <g id="Grupo_1374" data-name="Grupo 1374" transform="translate(855.22 41.4) rotate(90)" clip-path="url(#clip-path)">
      <g id="Grupo_1373" data-name="Grupo 1373" transform="translate(-111.669 -192.666)" clip-path="url(#clip-path-2)">
        <path id="Caminho_2106" data-name="Caminho 2106" d="M0,0H18.242V5.28H0Z" transform="translate(109.548 190.635)" fill="#fff"/>
      </g>
    </g>
    <g id="Grupo_341" data-name="Grupo 341" transform="translate(846.829 41.4) rotate(90)" clip-path="url(#clip-path-5)">
      <g id="Grupo_340" data-name="Grupo 340" transform="translate(-106.9 -195.509)" clip-path="url(#clip-path-6)">
        <path id="Caminho_551" data-name="Caminho 551" d="M0,0H13V5.28H0Z" transform="translate(104.87 193.478)" fill="#fff"/>
      </g>
    </g>
    <g id="Grupo_1372" data-name="Grupo 1372" transform="translate(852.423 41.4) rotate(90)" clip-path="url(#clip-path-5)">
      <g id="Grupo_1371" data-name="Grupo 1371" transform="translate(-106.9 -195.509)" clip-path="url(#clip-path-6)">
        <path id="Caminho_2103" data-name="Caminho 2103" d="M0,0H13V5.28H0Z" transform="translate(104.87 193.478)" fill="#fff"/>
      </g>
    </g>
    <g id="Grupo_343" data-name="Grupo 343" transform="translate(844.032 41.4) rotate(90)" clip-path="url(#clip-path-9)">
      <g id="Grupo_342" data-name="Grupo 342" transform="translate(-111.977 -198.352)" clip-path="url(#clip-path-10)">
        <path id="Caminho_554" data-name="Caminho 554" d="M0,0H17.442V5.28H0Z" transform="translate(109.85 196.321)" fill="#fff"/>
      </g>
    </g>
    <g id="Grupo_345" data-name="Grupo 345" transform="translate(841.235 41.4) rotate(90)" clip-path="url(#clip-path-11)">
      <g id="Grupo_344" data-name="Grupo 344" transform="translate(-106.9 -201.195)" clip-path="url(#clip-path-6)">
        <path id="Caminho_557" data-name="Caminho 557" d="M0,0H15.433V5.28H0Z" transform="translate(104.87 199.164)" fill="#fff"/>
      </g>
    </g>
    <g id="Grupo_347" data-name="Grupo 347" transform="translate(838.438 41.4) rotate(90)" clip-path="url(#clip-path-13)">
      <g id="Grupo_346" data-name="Grupo 346" transform="translate(-111.669 -204.037)" clip-path="url(#clip-path-2)">
        <path id="Caminho_560" data-name="Caminho 560" d="M0,0H18.242V5.28H0Z" transform="translate(109.548 202.007)" fill="#fff"/>
      </g>
    </g>
  </g>
</svg>
