<svg id="Carrinho" xmlns="http://www.w3.org/2000/svg" width="22" height="22" viewBox="0 0 22 22">
  <path id="Caminho_58" data-name="Caminho 58" d="M6.8,15.412l-.282-1.7H19.585a.8.8,0,0,0,.783-.661L21.985,4.5a.813.813,0,0,0-.783-.975H4.81L4.486,1.587A1.862,1.862,0,0,0,2.653,0H.907A.918.918,0,0,0,0,.93H0a.918.918,0,0,0,.907.93H2.653A.047.047,0,0,1,2.7,1.9l2.3,13.82a1.869,1.869,0,0,0,1.832,1.587H19.365a.918.918,0,0,0,.907-.93h0a.918.918,0,0,0-.907-.93H6.843A.043.043,0,0,1,6.8,15.412Z" fill="#dc282d"/>
  <path id="Caminho_59" data-name="Caminho 59" d="M327.706,368.8a1.97,1.97,0,1,0,2.006,1.969A1.99,1.99,0,0,0,327.706,368.8Z" transform="translate(-309.759 -350.739)" fill="#dc282d"/>
  <path id="Caminho_60" data-name="Caminho 60" d="M119.506,368.8a1.97,1.97,0,1,0,2.006,1.969A1.99,1.99,0,0,0,119.506,368.8Z" transform="translate(-111.947 -350.739)" fill="#dc282d"/>
</svg>
