<svg id="Color-" xmlns="http://www.w3.org/2000/svg" width="32" height="22.667" viewBox="0 0 32 22.667">
  <path id="Youtube" d="M212.7,383.513v-9.055L221.341,379Zm18.984-10.624a7,7,0,0,0-1.272-3.2,4.556,4.556,0,0,0-3.206-1.365c-4.478-.326-11.2-.326-11.2-.326h-.013s-6.717,0-11.2.326a4.556,4.556,0,0,0-3.207,1.365,7,7,0,0,0-1.271,3.2,49.1,49.1,0,0,0-.32,5.216v2.445a49.067,49.067,0,0,0,.32,5.215,7,7,0,0,0,1.271,3.2,5.4,5.4,0,0,0,3.529,1.378c2.56.247,10.88.324,10.88.324s6.724-.01,11.2-.337a4.56,4.56,0,0,0,3.206-1.365,7,7,0,0,0,1.272-3.2,49.065,49.065,0,0,0,.32-5.215v-2.445a49.1,49.1,0,0,0-.32-5.216Z" transform="translate(-200 -368)" fill="#ce1312" fill-rule="evenodd"/>
</svg>
