<svg id="delivery-truck" xmlns="http://www.w3.org/2000/svg" width="18" height="15.999" viewBox="0 0 18 15.999">
  <g id="Grupo_99" data-name="Grupo 99" transform="translate(0 0)">
    <path id="Caminho_176" data-name="Caminho 176" d="M17.361,45.664H15.774v.088A2.887,2.887,0,1,1,10,45.763a2.583,2.583,0,0,1,.032-.428H7.008c.011.11.021.23.032.351A2.966,2.966,0,0,1,6.252,47.8a2.852,2.852,0,0,1-2.013.921H4.164A2.9,2.9,0,0,1,1.278,45.84a3.322,3.322,0,0,1,.032-.5H.682A.7.7,0,0,1,0,44.666V33.4a.707.707,0,0,1,.682-.68H12.035a.663.663,0,0,1,.639.68v1.042l2.993-.077a.635.635,0,0,1,.607.406l1.672,4.134a.667.667,0,0,1,.053.252v5.845A.651.651,0,0,1,17.361,45.664Zm-.639-1.316V40.62H12.781a.353.353,0,0,1-.106-.011v2.182a1.53,1.53,0,0,1,.224-.011,2.87,2.87,0,0,1,2.535,1.557h1.289ZM12.9,47.408a1.656,1.656,0,1,0-1.608-1.656A1.638,1.638,0,0,0,12.9,47.408Zm-8.691,0a1.564,1.564,0,0,0,1.118-.515,1.712,1.712,0,0,0,.437-1.184A1.621,1.621,0,0,0,4.154,44.1H4.111a1.564,1.564,0,0,0-1.118.515A1.664,1.664,0,0,0,2.556,45.8,1.615,1.615,0,0,0,4.207,47.408ZM1.278,34.041v9.979H1.7a.425.425,0,0,1,.117.011,3.551,3.551,0,0,1,.245-.318,2.809,2.809,0,0,1,2.013-.921h.075A2.8,2.8,0,0,1,6.5,44.019h4.069a2.921,2.921,0,0,1,.831-.8V34.041ZM15.263,35.7l-2.588.055v3.564a.353.353,0,0,1,.106-.011h3.941v-.011Z" transform="translate(0 -32.725)" fill="#fff"/>
  </g>
</svg>
