<svg xmlns="http://www.w3.org/2000/svg" width="24" height="24" viewBox="0 0 24 24">
  <g id="drill" transform="translate(0 0)">
    <g id="Grupo_1349" data-name="Grupo 1349" transform="translate(0 0)">
      <g id="Grupo_1348" data-name="Grupo 1348">
        <path id="Caminho_2065" data-name="Caminho 2065" d="M36.142,51.2H34.936a.8.8,0,0,0-.8.8v2.139a.8.8,0,0,0,.5.746l1.206.482a.8.8,0,0,0,1.1-.746V52A.8.8,0,0,0,36.142,51.2Zm0,3.424-1.205-.482V52h1.205Z" transform="translate(-32.526 -48.789)" fill="#fff"/>
        <path id="Caminho_2066" data-name="Caminho 2066" d="M23.6,4h-2a.8.8,0,0,0-.8-.8h-.909a.849.849,0,0,0-.524-.406L17.953,2.47A1.2,1.2,0,0,0,16.8,1.6H14.493a1.2,1.2,0,0,0-.893-.4H12.4a.8.8,0,0,0-.232.035L10.491.228A1.6,1.6,0,0,0,9.668,0H6.1A1.589,1.589,0,0,0,4.966.469l-.1.1A.8.8,0,0,1,4.3.8H1.6A1.6,1.6,0,0,0,0,2.4V6.42A1.6,1.6,0,0,0,.95,7.882l1.9.844a.8.8,0,0,1,.443.954A20.526,20.526,0,0,0,2.4,15.2v1.669a.4.4,0,0,1-.117.283l-.565.565h0l-.165.165a1.192,1.192,0,0,0-.352.849V22a2,2,0,0,0,2,2h8.958a1.2,1.2,0,0,0,.666-.2l.642-.428a1.2,1.2,0,0,0,.534-1V21.056a1.2,1.2,0,0,0-.223-.7L12.763,18.94a3.206,3.206,0,0,0-2.6-1.34H7.452a.653.653,0,0,1-.627-.832l1.228-4.3a1.205,1.205,0,0,1,1.155-.87A.793.793,0,0,0,10,10.808V10.4a.4.4,0,0,0-.042-.179c-.006-.012-.587-1.2.173-1.821H11.2a1.2,1.2,0,0,0,1.132-.8c.022,0,.045,0,.068,0h1.2a1.2,1.2,0,0,0,.893-.4H16.8a1.2,1.2,0,0,0,1.153-.87l1.414-.323a.848.848,0,0,0,.523-.406H20.8a.8.8,0,0,0,.8-.8h2a.4.4,0,0,0,0-.8ZM13.022,22.7l-.642.428a.4.4,0,0,1-.222.067H3.2A1.2,1.2,0,0,1,2,22H13.2v.372A.4.4,0,0,1,13.022,22.7ZM8,18.4h2.159a2.4,2.4,0,0,1,1.953,1l1.013,1.419a.4.4,0,0,1,.075.233V21.2H2V18.731a.4.4,0,0,1,.117-.283l.048-.048H8Zm-.342-6.862a2.565,2.565,0,0,1-.063-2.127,2.258,2.258,0,0,1,1.527-.992,2.621,2.621,0,0,0,.08,2.075l.005.307A2.009,2.009,0,0,0,7.658,11.538ZM11.6,7.2a.4.4,0,0,1-.4.4h-2l-.044,0A3.137,3.137,0,0,0,6.895,9.024a3.771,3.771,0,0,0,.315,3.487L6.056,16.549a1.453,1.453,0,0,0,.1,1.051h-3.2a1.192,1.192,0,0,0,.249-.731V15.2a19.708,19.708,0,0,1,.859-5.292,1.6,1.6,0,0,0-.885-1.913l-1.9-.844A.8.8,0,0,1,.8,6.42V2.4a.8.8,0,0,1,.8-.8H4.3a1.589,1.589,0,0,0,1.131-.469l.1-.1A.8.8,0,0,1,6.1.8H9.668a.8.8,0,0,1,.412.114l1.538.923A.808.808,0,0,0,11.6,2V7.2Zm2-.4H12.4V6h.4a.4.4,0,1,0,0-.8h-.4V3.6h.4a.4.4,0,1,0,0-.8h-.4V2h1.2a.4.4,0,0,1,.4.4v4A.4.4,0,0,1,13.6,6.8Zm3.2-.4h-2V4H16a.4.4,0,0,0,0-.8H14.8V2.4h2a.4.4,0,0,1,.4.4V6A.4.4,0,0,1,16.8,6.4ZM18,5.5V3.3l1.179.268a.087.087,0,0,1,.021.062V5.168a.246.246,0,0,1-.011.058Zm2-.7V4h.8v.394s0,0,0,.006,0,0,0,.006V4.8Z" transform="translate(0 0)" fill="#fff"/>
        <path id="Caminho_2067" data-name="Caminho 2067" d="M123.886,51.2h-4.018a.4.4,0,0,0,0,.8h4.018a.4.4,0,0,0,0-.8Z" transform="translate(-113.873 -48.789)" fill="#fff"/>
        <path id="Caminho_2068" data-name="Caminho 2068" d="M123.886,85.333h-4.018a.4.4,0,0,0,0,.8h4.018a.4.4,0,0,0,0-.8Z" transform="translate(-113.873 -81.313)" fill="#fff"/>
        <path id="Caminho_2069" data-name="Caminho 2069" d="M123.886,119.467h-4.018a.4.4,0,0,0,0,.8h4.018a.4.4,0,0,0,0-.8Z" transform="translate(-113.873 -113.868)" fill="#fff"/>
      </g>
    </g>
  </g>
</svg>
