<svg xmlns="http://www.w3.org/2000/svg" width="32" height="32" viewBox="0 0 32 32">
  <path id="Facebook" d="M217.092,192H201.766A1.766,1.766,0,0,1,200,190.234V161.766A1.766,1.766,0,0,1,201.766,160h28.468A1.766,1.766,0,0,1,232,161.766v28.468A1.766,1.766,0,0,1,230.234,192h-8.155V179.608h4.16l.623-4.829h-4.783V171.7c0-1.4.389-2.351,2.393-2.351h2.557v-4.319a34.257,34.257,0,0,0-3.726-.19c-3.687,0-6.212,2.251-6.212,6.383v3.562h-4.17v4.829h4.17V192Z" transform="translate(-200 -160)" fill="#4460a0" fill-rule="evenodd"/>
</svg>
