<svg xmlns="http://www.w3.org/2000/svg" width="24" height="24" viewBox="0 0 24 24">
  <path id="floor-2" d="M23.573,24H.427A.427.427,0,0,1,0,23.573V.427A.427.427,0,0,1,.427,0H23.573A.427.427,0,0,1,24,.427V23.573A.427.427,0,0,1,23.573,24Zm-5.629-.854h5.2v-5.2L18.321,22.77l0,0,0,0Zm-6.643,0h5.436l.676-.676L14.7,19.752Zm-6.2,0h5l7.419-7.419-2.5-2.5L7.138,21.108h0Zm-4.245,0H3.892l2.341-2.341L3.61,18.183.854,20.94Zm14.446-4,2.718,2.718,5.129-5.129V11.3l-4.728,4.728h0ZM4.214,17.58,6.836,20.2,19.925,7.113,17.3,4.491,12.171,9.622h0ZM.854,14v5.733L3.3,17.282l0,0,0,0,7.952-7.952L8.458,6.515Zm14.766-1.374,2.5,2.5,5.017-5.017.012-.012v-5ZM.854,7.035V12.8l3.38-3.327-2.9-2.9ZM1.959,5.994,4.842,8.876,12.964.882H7.386Zm7.107-.078,2.8,2.8L19.733.854H14.209Zm8.84-2.029L20.528,6.51l2.618-2.618V.854H20.94ZM.854.854V5.862l.16-.15c.009-.011.018-.021.029-.032a.424.424,0,0,1,.052-.044L6.171.854Z" fill="#fff"/>
</svg>
