<svg xmlns="http://www.w3.org/2000/svg" xmlns:xlink="http://www.w3.org/1999/xlink" width="42" height="42" viewBox="0 0 42 42">
  <defs>
    <clipPath id="clip-path">
      <path id="Caminho_2041" data-name="Caminho 2041" d="M482.234-2354.181a1.429,1.429,0,0,0-2.02,0l-2.544,2.544a2.846,2.846,0,0,0-.734-.1H462.48a2.858,2.858,0,0,0-2.02.839l-18.982,18.972a2.859,2.859,0,0,0,0,4.04l14.455,14.456a2.859,2.859,0,0,0,4.04,0l18.972-18.972a2.858,2.858,0,0,0,.829-2.02v-14.456a2.864,2.864,0,0,0-.1-.734l2.544-2.544a1.429,1.429,0,0,0,.019-2.02Zm-5.308,19.754-18.972,18.972L443.5-2329.91l18.982-18.973h12.435l-4.364,4.365a4.707,4.707,0,0,0-2.182-.553,4.765,4.765,0,0,0-4.764,4.765,4.765,4.765,0,0,0,4.764,4.765,4.765,4.765,0,0,0,4.764-4.765,4.705,4.705,0,0,0-.562-2.182l4.364-4.365Zm-6.67-5.88a1.905,1.905,0,0,1-1.906,1.906,1.905,1.905,0,0,1-1.906-1.906,1.905,1.905,0,0,1,1.906-1.906,1.906,1.906,0,0,1,1.354.554,1.908,1.908,0,0,1,.562,1.351Z" fill="#dc282d" clip-rule="evenodd"/>
    </clipPath>
    <clipPath id="clip-path-2">
      <path id="Caminho_2040" data-name="Caminho 2040" d="M-80,4.863H872.9V-2911H-80Z" transform="translate(80 2911)" fill="#dc282d"/>
    </clipPath>
  </defs>
  <g id="Grupo_1333" data-name="Grupo 1333" transform="translate(-440.643 2354.599)" clip-path="url(#clip-path)">
    <g id="Grupo_1332" data-name="Grupo 1332" transform="translate(-55.476 -2884.792)" clip-path="url(#clip-path-2)">
      <path id="Caminho_2039" data-name="Caminho 2039" d="M435.643-2359.6h51.529v51.529H435.643Z" transform="translate(55.711 2885.027)" fill="#dc282d"/>
    </g>
  </g>
</svg>
