<svg xmlns="http://www.w3.org/2000/svg" xmlns:xlink="http://www.w3.org/1999/xlink" width="32" height="32" viewBox="0 0 32 32">
  <defs>
    <clipPath id="clip-path">
      <path id="Caminho_210" data-name="Caminho 210" d="M13.594-4.01h0a6.4,6.4,0,0,0,6.4-6.4,6.4,6.4,0,0,0-6.4-6.4,6.4,6.4,0,0,0-6.4,6.4,6.4,6.4,0,0,0,6.4,6.4Zm0,3.2h0A9.594,9.594,0,0,1,4-10.406,9.594,9.594,0,0,1,13.594-20a9.594,9.594,0,0,1,9.594,9.594A9.594,9.594,0,0,1,13.594-.812Z" transform="translate(-4 20)" fill="#dc282d"/>
    </clipPath>
    <clipPath id="clip-path-2">
      <path id="Caminho_209" data-name="Caminho 209" d="M-173,746.407H1106.211V-213H-173Z" transform="translate(173 213)" fill="#dc282d"/>
    </clipPath>
    <clipPath id="clip-path-3">
      <path id="Caminho_213" data-name="Caminho 213" d="M28.8,5.99a12.8,12.8,0,0,0-25.6,0M0,5.99a16,16,0,0,1,32,0" transform="translate(0 10)" fill="#dc282d"/>
    </clipPath>
    <clipPath id="clip-path-4">
      <path id="Caminho_212" data-name="Caminho 212" d="M-173,746.407H1107V-213H-173Z" transform="translate(173 213)" fill="#dc282d"/>
    </clipPath>
  </defs>
  <g id="Grupo_110" data-name="Grupo 110" transform="translate(0 20)">
    <g id="Grupo_106" data-name="Grupo 106" transform="translate(6.406 -20)" clip-path="url(#clip-path)">
      <g id="Grupo_105" data-name="Grupo 105" transform="translate(-283.025 -308.609)" clip-path="url(#clip-path-2)">
        <path id="Caminho_208" data-name="Caminho 208" d="M-1-25H34.178V10.178H-1Z" transform="translate(276.03 325.614)" fill="#dc282d"/>
      </g>
    </g>
    <g id="Grupo_108" data-name="Grupo 108" transform="translate(0 -3.99)" clip-path="url(#clip-path-3)">
      <g id="Grupo_107" data-name="Grupo 107" transform="translate(-276.8 -324.599)" clip-path="url(#clip-path-4)">
        <path id="Caminho_211" data-name="Caminho 211" d="M-5-15H43V16.98H-5Z" transform="translate(273.8 331.604)" fill="#dc282d"/>
      </g>
    </g>
  </g>
</svg>
