<svg id="Grupo_122" data-name="Grupo 122" xmlns="http://www.w3.org/2000/svg" xmlns:xlink="http://www.w3.org/1999/xlink" width="16" height="12" viewBox="0 0 16 12">
  <defs>
    <clipPath id="clip-path">
      <path id="Caminho_226" data-name="Caminho 226" d="M0-15.25A.778.778,0,0,1,.793-16H15.207a.771.771,0,0,1,.793.75.778.778,0,0,1-.793.75H.793A.771.771,0,0,1,0-15.25ZM0-10a.778.778,0,0,1,.793-.75H15.207A.771.771,0,0,1,16-10a.778.778,0,0,1-.793.75H.793A.771.771,0,0,1,0-10ZM0-4.75A.778.778,0,0,1,.793-5.5H15.207A.771.771,0,0,1,16-4.75a.778.778,0,0,1-.793.75H.793A.771.771,0,0,1,0-4.75Z" transform="translate(0 16)" fill="#fff" clip-rule="evenodd"/>
    </clipPath>
    <clipPath id="clip-path-2">
      <path id="Caminho_225" data-name="Caminho 225" d="M-557-1H83V-451H-557Z" transform="translate(557 451)" fill="#fff"/>
    </clipPath>
  </defs>
  <g id="Grupo_121" data-name="Grupo 121" clip-path="url(#clip-path)">
    <g id="Grupo_120" data-name="Grupo 120" transform="translate(-445.6 -326.25)" clip-path="url(#clip-path-2)">
      <path id="Caminho_224" data-name="Caminho 224" d="M-5-21H19V-1.5H-5Z" transform="translate(446.6 343.5)" fill="#fff"/>
    </g>
  </g>
</svg>
