<svg xmlns="http://www.w3.org/2000/svg" xmlns:xlink="http://www.w3.org/1999/xlink" width="24" height="24" viewBox="0 0 24 24">
  <defs>
    <clipPath id="clip-path">
      <path id="Caminho_2156" data-name="Caminho 2156" d="M380.273-2604.047H370.167v-10.105a.948.948,0,0,0-.947-.947.948.948,0,0,0-.947.947v10.105H358.167a.948.948,0,0,0-.947.947.948.948,0,0,0,.947.948h10.105v10.105a.947.947,0,0,0,.947.947.947.947,0,0,0,.947-.947v-10.105h10.105a.947.947,0,0,0,.947-.948.948.948,0,0,0-.947-.947Z" transform="translate(0)" fill="#fff" clip-rule="evenodd"/>
    </clipPath>
    <clipPath id="clip-path-2">
      <path id="Caminho_2155" data-name="Caminho 2155" d="M-80-978.359H551.582V-2911H-80Z" transform="translate(80 2911)" fill="#fff"/>
    </clipPath>
  </defs>
  <g id="Grupo_1395" data-name="Grupo 1395" transform="translate(-357.22 2615.1)" clip-path="url(#clip-path)">
    <g id="Grupo_1394" data-name="Grupo 1394" transform="translate(81.08 -2801.985)" clip-path="url(#clip-path-2)">
      <path id="Caminho_2154" data-name="Caminho 2154" d="M352.22-2620.1h30.316v30.316H352.22Z" transform="translate(-79.238 2803.827)" fill="#fff"/>
    </g>
  </g>
</svg>
