<svg xmlns="http://www.w3.org/2000/svg" xmlns:xlink="http://www.w3.org/1999/xlink" width="24" height="12" viewBox="0 0 24 12">
  <defs>
    <clipPath id="clip-path">
      <path id="Caminho_571" data-name="Caminho 571" d="M30.129-2422.6H8.311a1.049,1.049,0,0,0-1.091,1,1.048,1.048,0,0,0,1.091,1H30.129a1.048,1.048,0,0,0,1.091-1,1.049,1.049,0,0,0-1.091-1Z" transform="translate(-7.22 2422.6)" fill="#fff" clip-rule="evenodd"/>
    </clipPath>
    <clipPath id="clip-path-2">
      <path id="Caminho_570" data-name="Caminho 570" d="M-80-870.791H647.273V-2911H-80Z" transform="translate(80 2911)" fill="#fff"/>
    </clipPath>
    <clipPath id="clip-path-3">
      <path id="Caminho_574" data-name="Caminho 574" d="M30.129-2412.6H8.311a1.049,1.049,0,0,0-1.091,1,1.048,1.048,0,0,0,1.091,1H30.129a1.048,1.048,0,0,0,1.091-1,1.049,1.049,0,0,0-1.091-1Z" transform="translate(-7.22 2412.6)" fill="#fff" clip-rule="evenodd"/>
    </clipPath>
    <clipPath id="clip-path-4">
      <path id="Caminho_573" data-name="Caminho 573" d="M-80-871.021H647.273V-2911H-80Z" transform="translate(80 2911)" fill="#fff"/>
    </clipPath>
  </defs>
  <g id="Grupo_1396" data-name="Grupo 1396" transform="translate(-1245 -1234)">
    <g id="Grupo_353" data-name="Grupo 353" transform="translate(1245 1234)" clip-path="url(#clip-path)">
      <g id="Grupo_352" data-name="Grupo 352" transform="translate(-63.433 -325.633)" clip-path="url(#clip-path-2)">
        <path id="Caminho_569" data-name="Caminho 569" d="M2.22-2427.6H33.493v8.667H2.22Z" transform="translate(57.576 2749.9)" fill="#fff"/>
      </g>
    </g>
    <g id="Grupo_355" data-name="Grupo 355" transform="translate(1245 1244)" clip-path="url(#clip-path-3)">
      <g id="Grupo_354" data-name="Grupo 354" transform="translate(-63.433 -332.263)" clip-path="url(#clip-path-4)">
        <path id="Caminho_572" data-name="Caminho 572" d="M2.22-2417.6H33.493v8.667H2.22Z" transform="translate(57.576 2746.53)" fill="#fff"/>
      </g>
    </g>
  </g>
</svg>
