<svg xmlns="http://www.w3.org/2000/svg" xmlns:xlink="http://www.w3.org/1999/xlink" width="80" height="80" viewBox="0 0 80 80">
  <defs>
    <clipPath id="clip-path">
      <path id="Caminho_2050" data-name="Caminho 2050" d="M129.72-2530.35a40,40,0,0,0-40,40,40,40,0,0,0,40,40,40,40,0,0,0,40-40A40,40,0,0,0,129.72-2530.35Zm-34.545,40a34.546,34.546,0,0,1,24.291-32.991,34.544,34.544,0,0,1,38.714,13.407,34.544,34.544,0,0,1-1.314,40.947,34.984,34.984,0,0,0-17.255-13.436,17.291,17.291,0,0,0,4.655-12.019c0-9.091-6.527-16.364-14.545-16.364s-14.545,7.273-14.545,16.364a17.235,17.235,0,0,0,5.018,12.327,32.371,32.371,0,0,0-16.909,13.964,34.382,34.382,0,0,1-8.109-22.2Zm35.455,6.364a29.247,29.247,0,0,0-2.982.164,10.673,10.673,0,0,1-7.018-10.618c0-6.018,4.073-10.909,9.091-10.909s9.091,4.891,9.091,10.909a10.782,10.782,0,0,1-6.691,10.509C131.629-2483.95,131.138-2483.987,130.629-2483.987Zm-23.309,20a26.6,26.6,0,0,1,20-14.218,12.448,12.448,0,0,0,5.345-.127,27.946,27.946,0,0,1,20.327,13.491,34.419,34.419,0,0,1-45.727.854Z" transform="translate(0 0)" fill="gray" clip-rule="evenodd"/>
    </clipPath>
    <clipPath id="clip-path-2">
      <path id="Caminho_2049" data-name="Caminho 2049" d="M-80,2652.636H1738.182V-2911H-80Z" transform="translate(80 2911)" fill="gray"/>
    </clipPath>
  </defs>
  <g id="Grupo_1339" data-name="Grupo 1339" transform="translate(-89.72 2530.35)" clip-path="url(#clip-path)">
    <g id="Grupo_1338" data-name="Grupo 1338" transform="translate(-218.862 -3222.441)" clip-path="url(#clip-path-2)">
      <path id="Caminho_2048" data-name="Caminho 2048" d="M84.72-2535.35H182.9v98.182H84.72Z" transform="translate(214.771 3218.35)" fill="gray"/>
    </g>
  </g>
</svg>
