<svg xmlns="http://www.w3.org/2000/svg" xmlns:xlink="http://www.w3.org/1999/xlink" width="64" height="56" viewBox="0 0 64 56">
  <defs>
    <clipPath id="clip-path">
      <path id="Caminho_1018" data-name="Caminho 1018" d="M549.919-1430.938a2.2,2.2,0,0,0,2.2-2.2V-1443.4a2.2,2.2,0,0,0-2.2-2.2,2.2,2.2,0,0,0-2.2,2.2v10.263A2.2,2.2,0,0,0,549.919-1430.938Z" transform="translate(-547.72 1445.6)" fill="#dc282d" clip-rule="evenodd"/>
    </clipPath>
    <clipPath id="clip-path-2">
      <path id="Caminho_1017" data-name="Caminho 1017" d="M-80,1575.634H1386.22V-2911H-80Z" transform="translate(80 2911)" fill="#dc282d"/>
    </clipPath>
    <clipPath id="clip-path-3">
      <path id="Caminho_1021" data-name="Caminho 1021" d="M555.919-1430.938a2.2,2.2,0,0,0,2.2-2.2V-1443.4a2.2,2.2,0,0,0-2.2-2.2,2.2,2.2,0,0,0-2.2,2.2v10.263A2.2,2.2,0,0,0,555.919-1430.938Z" transform="translate(-553.72 1445.6)" fill="#dc282d" clip-rule="evenodd"/>
    </clipPath>
    <clipPath id="clip-path-5">
      <path id="Caminho_1024" data-name="Caminho 1024" d="M561.919-1430.938a2.2,2.2,0,0,0,2.2-2.2V-1443.4a2.2,2.2,0,0,0-2.2-2.2,2.2,2.2,0,0,0-2.2,2.2v10.263A2.2,2.2,0,0,0,561.919-1430.938Z" transform="translate(-559.72 1445.6)" fill="#dc282d" clip-rule="evenodd"/>
    </clipPath>
    <clipPath id="clip-path-7">
      <path id="Caminho_1027" data-name="Caminho 1027" d="M543.919-1430.938a2.2,2.2,0,0,0,2.2-2.2V-1443.4a2.2,2.2,0,0,0-2.2-2.2,2.2,2.2,0,0,0-2.2,2.2v10.263A2.2,2.2,0,0,0,543.919-1430.938Z" transform="translate(-541.72 1445.6)" fill="#dc282d" clip-rule="evenodd"/>
    </clipPath>
    <clipPath id="clip-path-9">
      <path id="Caminho_1030" data-name="Caminho 1030" d="M589.474-1454.22H586.7v-.085L572.257-1468.4a2.226,2.226,0,0,0-3.037.053,2.1,2.1,0,0,0-.054,2.963l11.444,11.165H543l11.444-11.165a2.1,2.1,0,0,0-.054-2.963,2.226,2.226,0,0,0-3.037-.053L536.9-1454.3v.085h-2.77a4.321,4.321,0,0,0-4.374,4.267v5.689a4.321,4.321,0,0,0,4.374,4.267h0a4.176,4.176,0,0,0,0,.782l4.374,22.757a4.346,4.346,0,0,0,4.3,3.485h37.9a4.346,4.346,0,0,0,4.3-3.485l4.373-22.757a4.155,4.155,0,0,0,0-.782h0a4.321,4.321,0,0,0,4.374-4.267v-5.689A4.319,4.319,0,0,0,589.474-1454.22Zm-8.747,36.98h-37.9L538.449-1440H585.1Zm8.747-27.024h-55.4v-5.689h55.4Z" transform="translate(-529.76 1468.972)" fill="#dc282d" clip-rule="evenodd"/>
    </clipPath>
    <clipPath id="clip-path-10">
      <path id="Caminho_1029" data-name="Caminho 1029" d="M-80,1441.276H1377.861V-2911H-80Z" transform="translate(80 2911)" fill="#dc282d"/>
    </clipPath>
  </defs>
  <g id="Grupo_1397" data-name="Grupo 1397" transform="translate(-1417.76 -1086.028)">
    <g id="Grupo_651" data-name="Grupo 651" transform="translate(1443.932 1118.921)" clip-path="url(#clip-path)">
      <g id="Grupo_650" data-name="Grupo 650" transform="translate(-920.376 -2148.599)" clip-path="url(#clip-path-2)">
        <path id="Caminho_1016" data-name="Caminho 1016" d="M542.72-1450.6h19.061v29.324H542.72Z" transform="translate(370.325 3591.868)" fill="#dc282d"/>
      </g>
    </g>
    <g id="Grupo_653" data-name="Grupo 653" transform="translate(1452.676 1118.921)" clip-path="url(#clip-path-3)">
      <g id="Grupo_652" data-name="Grupo 652" transform="translate(-929.173 -2148.599)" clip-path="url(#clip-path-2)">
        <path id="Caminho_1019" data-name="Caminho 1019" d="M548.72-1450.6h19.061v29.324H548.72Z" transform="translate(373.122 3591.868)" fill="#dc282d"/>
      </g>
    </g>
    <g id="Grupo_655" data-name="Grupo 655" transform="translate(1461.419 1118.921)" clip-path="url(#clip-path-5)">
      <g id="Grupo_654" data-name="Grupo 654" transform="translate(-937.97 -2148.599)" clip-path="url(#clip-path-2)">
        <path id="Caminho_1022" data-name="Caminho 1022" d="M554.72-1450.6h19.061v29.324H554.72Z" transform="translate(375.919 3591.868)" fill="#dc282d"/>
      </g>
    </g>
    <g id="Grupo_657" data-name="Grupo 657" transform="translate(1435.189 1118.921)" clip-path="url(#clip-path-7)">
      <g id="Grupo_656" data-name="Grupo 656" transform="translate(-911.578 -2148.599)" clip-path="url(#clip-path-2)">
        <path id="Caminho_1025" data-name="Caminho 1025" d="M536.72-1450.6h19.061v29.324H536.72Z" transform="translate(367.527 3591.868)" fill="#dc282d"/>
      </g>
    </g>
    <g id="Grupo_659" data-name="Grupo 659" transform="translate(1417.76 1086.028)" clip-path="url(#clip-path-9)">
      <g id="Grupo_658" data-name="Grupo 658" transform="translate(-888.946 -2051.013)" clip-path="url(#clip-path-10)">
        <path id="Caminho_1028" data-name="Caminho 1028" d="M524.76-1473.973h78.579v70.224H524.76Z" transform="translate(356.896 3517.875)" fill="#dc282d"/>
      </g>
    </g>
  </g>
</svg>
