<svg xmlns="http://www.w3.org/2000/svg" xmlns:xlink="http://www.w3.org/1999/xlink" width="32" height="32" viewBox="0 0 32 32">
  <defs>
    <clipPath id="clip-path">
      <path id="Caminho_229" data-name="Caminho 229" d="M25.613,5.565h1.6A4.8,4.8,0,0,0,32,.762V-15.2A4.8,4.8,0,0,0,27.208-20H4.792A4.8,4.8,0,0,0,0-15.2V.762a4.8,4.8,0,0,0,4.792,4.8H19.181L18.049,5.1l6.432,6.432A1.6,1.6,0,0,0,27.213,10.4V3.967h-1.6v1.6Zm0-3.2a1.6,1.6,0,0,0-1.6,1.6V10.4L26.745,9.27,20.313,2.838a1.6,1.6,0,0,0-1.132-.469H4.792A1.6,1.6,0,0,1,3.2.762V-15.2A1.6,1.6,0,0,1,4.792-16.8H27.208A1.6,1.6,0,0,1,28.8-15.2V.762a1.6,1.6,0,0,1-1.592,1.607Z" transform="translate(0 20)" fill="#dc282d"/>
    </clipPath>
    <clipPath id="clip-path-2">
      <path id="Caminho_228" data-name="Caminho 228" d="M-173,649.691H1107V-309H-173Z" transform="translate(173 309)" fill="#dc282d"/>
    </clipPath>
  </defs>
  <g id="Grupo_125" data-name="Grupo 125" transform="translate(0 20)">
    <g id="Grupo_124" data-name="Grupo 124" transform="translate(0 -20)" clip-path="url(#clip-path)">
      <g id="Grupo_123" data-name="Grupo 123" transform="translate(-276.8 -461.77)" clip-path="url(#clip-path-2)">
        <path id="Caminho_227" data-name="Caminho 227" d="M-5-25H43V22.978H-5Z" transform="translate(273.8 478.781)" fill="#dc282d"/>
      </g>
    </g>
  </g>
</svg>
