<svg xmlns="http://www.w3.org/2000/svg" width="24" height="24.001" viewBox="0 0 24 24.001">
  <g id="light-bulb-on" transform="translate(-21.416)">
    <path id="Caminho_2064" data-name="Caminho 2064" d="M37.967,2.762l.687-1.079a.588.588,0,0,1,.779-.205.512.512,0,0,1,.219.728l-.687,1.079a.568.568,0,0,1-.5.262.946.946,0,0,1-.28-.059A.506.506,0,0,1,37.967,2.762Zm-10.1.526a.568.568,0,0,0,.5.262.947.947,0,0,0,.28-.059.512.512,0,0,0,.219-.728l-.687-1.079a.588.588,0,0,0-.779-.205.512.512,0,0,0-.219.728Zm5.548-.99a.54.54,0,0,0,.56-.523V.523a.561.561,0,0,0-1.12,0V1.775A.505.505,0,0,0,33.415,2.3Zm-10.1,8.36H21.976a.525.525,0,1,0,0,1.047h1.339a.525.525,0,1,0,0-1.047Zm21.542,0H43.518a.525.525,0,1,0,0,1.047h1.339a.525.525,0,1,0,0-1.047ZM43.826,5.59a.588.588,0,0,0-.779-.205l-1.155.642a.512.512,0,0,0-.219.728.568.568,0,0,0,.5.262.946.946,0,0,0,.28-.059l1.155-.642A.507.507,0,0,0,43.826,5.59Zm-3.054,5.536a6.667,6.667,0,0,1-.967,3.41.5.5,0,0,1-.124.205l-.064.086a6.311,6.311,0,0,1-.811.99,6.383,6.383,0,0,0-1.622,3.437v.03c0,.059.032.146.032.232v2.506A2.056,2.056,0,0,1,35.1,24H31.64a2.056,2.056,0,0,1-2.119-1.98V19.253a6.444,6.444,0,0,0-1.559-3.35,5.823,5.823,0,0,1-.935-1.165c-.032-.059-.063-.086-.092-.146a6.506,6.506,0,0,1-1-3.437,7.205,7.205,0,0,1,7.418-6.933A7.162,7.162,0,0,1,40.773,11.125Zm-4.708,8.681H30.673v.99h5.392v-.99Zm0,2.274v-.205H30.673v.205a.955.955,0,0,0,.967.815H35.1A.952.952,0,0,0,36.065,22.08Zm3.553-10.955a6.072,6.072,0,0,0-6.267-5.857,6.072,6.072,0,0,0-6.266,5.857,5.64,5.64,0,0,0,.872,2.973h0v.03a7.122,7.122,0,0,0,.843,1.049l.064.059a8.607,8.607,0,0,1,1.778,3.5H36.1a9.022,9.022,0,0,1,1.839-3.582c0-.03.032-.03.063-.059a3.993,3.993,0,0,0,.716-.9c0-.03.032-.03.032-.059s.032-.03.032-.059A5.433,5.433,0,0,0,39.618,11.125Zm-14.681-5.1-1.155-.642A.586.586,0,0,0,23,5.59a.51.51,0,0,0,.219.728l1.155.642a.481.481,0,0,0,.28.059.572.572,0,0,0,.5-.262A.517.517,0,0,0,24.937,6.027Z" transform="translate(0 0)" fill="#fff"/>
  </g>
</svg>
