<svg xmlns="http://www.w3.org/2000/svg" width="24" height="24.001" viewBox="0 0 24 24.001">
  <g id="oil" transform="translate(-4 -67.998)">
    <g id="Grupo_1369" data-name="Grupo 1369" transform="translate(4 67.998)">
      <path id="Caminho_2102" data-name="Caminho 2102" d="M25.711,81.952v-.558a1.619,1.619,0,1,0-3.237,0v.558h-1.9a5.687,5.687,0,0,0-1.014-1q-.162-.126-.324-.234V78.045h1.079a1.675,1.675,0,0,0,0-3.349H18.158V73.579h1.079a.549.549,0,0,0,.54-.558V71.347h3.237a1.675,1.675,0,0,0,0-3.349H8.986a1.675,1.675,0,0,0,0,3.349h3.237v1.674a.549.549,0,0,0,.54.558h1.079V74.7H11.684a1.675,1.675,0,0,0,0,3.349h1.079v2.674c-.108.072-.216.149-.32.232a5.668,5.668,0,0,0-1.018,1h-1.9v-.558a1.619,1.619,0,1,0-3.237,0v.558H4v7.814H6.289v.558a1.619,1.619,0,1,0,3.237,0v-.558h1.9a5.79,5.79,0,0,0,8.34.835,6.028,6.028,0,0,0,.807-.835h1.9v.558a1.619,1.619,0,1,0,3.237,0v-.558H28V81.952Zm-19.422,6.7H5.079V83.068h1.21Zm2.158,1.674a.54.54,0,1,1-1.079,0v-8.93a.549.549,0,0,1,.54-.558.517.517,0,0,1,.384.171.544.544,0,0,1,.155.387Zm.54-20.093a.558.558,0,0,1,0-1.116H23.014a.558.558,0,0,1,0,1.116ZM13.3,72.463V71.347h5.4v1.116Zm3.777,1.116V74.7H14.921V73.579Zm-5.4,3.349a.559.559,0,0,1-.374-.956.508.508,0,0,1,.374-.161h8.632a.559.559,0,0,1,.374.956.508.508,0,0,1-.374.161Zm10.79,11.721H20.311a.534.534,0,0,0-.432.223,4.739,4.739,0,0,1-6.782,1.01,4.934,4.934,0,0,1-.977-1.01.534.534,0,0,0-.432-.223H9.526V83.068h2.163a.534.534,0,0,0,.432-.227,4.879,4.879,0,0,1,1.451-1.325.562.562,0,0,0,.27-.485V78.045h4.316v2.986a.562.562,0,0,0,.27.485,4.973,4.973,0,0,1,1.445,1.327.534.534,0,0,0,.432.227h2.17Zm2.158,1.674a.54.54,0,1,1-1.079,0v-8.93a.553.553,0,0,1,.165-.4.508.508,0,0,1,.374-.161.549.549,0,0,1,.54.558Zm2.289-1.674h-1.21V83.068h1.21Z" transform="translate(-4 -67.998)" fill="#fff"/>
    </g>
  </g>
</svg>
