<svg xmlns="http://www.w3.org/2000/svg" width="24" height="24" viewBox="0 0 24 24">
  <g id="paint-bucket" transform="translate(0 0.931)">
    <g id="Grupo_1364" data-name="Grupo 1364" transform="translate(21.797 14.719)">
      <g id="Grupo_1363" data-name="Grupo 1363">
        <path id="Caminho_2099" data-name="Caminho 2099" d="M465.8,314.137a.468.468,0,1,0,.137.331A.472.472,0,0,0,465.8,314.137Z" transform="translate(-465 -314)" fill="#fff"/>
      </g>
    </g>
    <g id="Grupo_1366" data-name="Grupo 1366" transform="translate(0 -0.931)">
      <g id="Grupo_1365" data-name="Grupo 1365">
        <path id="Caminho_2100" data-name="Caminho 2100" d="M22.266,0H1.734a1.734,1.734,0,0,0-.469,3.4V15.542a.713.713,0,0,1-.328-.6v-.114a.469.469,0,0,0-.938,0v.114a1.654,1.654,0,0,0,1.266,1.605v3.608A3.848,3.848,0,0,0,5.109,24H18.891a3.848,3.848,0,0,0,3.844-3.844V17.326a.469.469,0,1,0-.937,0v2.831a2.91,2.91,0,0,1-2.906,2.906H5.109A2.91,2.91,0,0,1,2.2,20.156V16.58a11.175,11.175,0,0,0,9.635-6.556c.053,0,.107.007.162.007a1.972,1.972,0,1,0-1.055-.308A10.238,10.238,0,0,1,2.2,15.641V12.159a1.717,1.717,0,0,0,2.5-1.53V6.2a.769.769,0,1,1,1.539,0v.168a1.805,1.805,0,0,0,3.611,0V3.987a.519.519,0,0,1,.519-.519h4.844a1.166,1.166,0,0,1,1.165,1.165v5.6a2.232,2.232,0,0,0,4.465,0V6.766a.469.469,0,0,0-.938,0v3.471a1.295,1.295,0,0,1-2.59,0v-5.6a2.09,2.09,0,0,0-.353-1.165H21.8v9.8a.469.469,0,1,0,.938,0V3.4A1.734,1.734,0,0,0,22.266,0ZM12,7.031a1.031,1.031,0,0,1,.218,2.039q.151-.437.268-.892a.469.469,0,0,0-.908-.232q-.115.45-.268.881A1.031,1.031,0,0,1,12,7.031ZM8.914,3.987V6.364a.868.868,0,0,1-1.736,0V6.2a1.707,1.707,0,1,0-3.414,0v4.433a.781.781,0,1,1-1.562,0V3.469H9.01A1.448,1.448,0,0,0,8.914,3.987ZM22.266,2.531H1.734a.8.8,0,0,1,0-1.594H22.266a.8.8,0,1,1,0,1.594Z" transform="translate(0 0)" fill="#fff"/>
      </g>
    </g>
    <g id="Grupo_1368" data-name="Grupo 1368" transform="translate(19.907 4.328)">
      <g id="Grupo_1367" data-name="Grupo 1367">
        <path id="Caminho_2101" data-name="Caminho 2101" d="M425.47,92.467a.469.469,0,1,0,.137.331A.472.472,0,0,0,425.47,92.467Z" transform="translate(-424.67 -92.33)" fill="#fff"/>
      </g>
    </g>
  </g>
</svg>
