<svg xmlns="http://www.w3.org/2000/svg" xmlns:xlink="http://www.w3.org/1999/xlink" width="60.437" height="47.428" viewBox="0 0 60.437 47.428">
  <defs>
    <filter id="Background" x="0" y="0" width="60.437" height="47.428" filterUnits="userSpaceOnUse">
      <feOffset dx="2" dy="2" input="SourceAlpha"/>
      <feGaussianBlur stdDeviation="2.5" result="blur"/>
      <feFlood flood-opacity="0.161"/>
      <feComposite operator="in" in2="blur"/>
      <feComposite in="SourceGraphic"/>
    </filter>
  </defs>
  <g id="PayPal" transform="translate(5.498 5.5)">
    <g id="Background-2" data-name="Background" transform="translate(0.002 0)">
      <g transform="matrix(1, 0, 0, 1, -5.5, -5.5)" filter="url(#Background)">
        <rect id="Background-3" data-name="Background" width="45.437" height="32.428" rx="4" transform="translate(5.5 5.5)" fill="#f7f6f4"/>
      </g>
    </g>
    <g id="Logo" transform="translate(5.206 12.41)">
      <path id="Pay" d="M13.5,9.546a.233.233,0,0,1-.186-.366l1.358-1.96L13.229,2.736a.231.231,0,0,1,.215-.307h1.289A.38.38,0,0,1,15.1,2.7l.766,2.767L17.672,2.6a.376.376,0,0,1,.313-.17H19.3a.232.232,0,0,1,.187.364L15.122,9.38a.378.378,0,0,1-.311.166ZM6.7,7.052A2.56,2.56,0,0,1,6.216,5,3,3,0,0,1,9.128,2.348a1.824,1.824,0,0,1,1.542.53l.091.135.057-.4a.228.228,0,0,1,.224-.2h1.3a.23.23,0,0,1,.224.268l-.705,4.612a.381.381,0,0,1-.374.327H10.317a.231.231,0,0,1-.224-.268l.058-.371a2.5,2.5,0,0,1-1.806.748A2.019,2.019,0,0,1,6.7,7.052ZM7.976,5.018a1.152,1.152,0,0,0,.2.937,1.089,1.089,0,0,0,.876.36,1.465,1.465,0,0,0,1.473-1.275,1.167,1.167,0,0,0-.222-.943,1.069,1.069,0,0,0-.87-.334A1.444,1.444,0,0,0,7.976,5.018ZM.227,7.651A.231.231,0,0,1,0,7.383L1.1.327A.382.382,0,0,1,1.479,0H4.2A2.5,2.5,0,0,1,6.189.712a2.184,2.184,0,0,1,.348,1.8,2.817,2.817,0,0,1-3.1,2.649H2.573a.381.381,0,0,0-.374.327L1.9,7.325a.381.381,0,0,1-.374.326Zm2.55-5.909L2.488,3.61H2.9c.722,0,1.47,0,1.618-1a.946.946,0,0,0-.132-.777c-.239-.286-.7-.286-1.2-.286H3A.228.228,0,0,0,2.777,1.742Z" transform="translate(0)" fill="#053385"/>
      <path id="Pal" d="M6.7,7.052A2.562,2.562,0,0,1,6.216,5,2.984,2.984,0,0,1,9.128,2.363a1.817,1.817,0,0,1,1.541.515l.092.135.057-.4a.229.229,0,0,1,.224-.2h1.3a.231.231,0,0,1,.224.268l-.705,4.612a.381.381,0,0,1-.374.327H10.318a.231.231,0,0,1-.224-.268l.058-.371a2.5,2.5,0,0,1-1.807.748A2.019,2.019,0,0,1,6.7,7.052ZM7.976,5.018a1.154,1.154,0,0,0,.2.937,1.089,1.089,0,0,0,.876.36,1.465,1.465,0,0,0,1.473-1.275,1.168,1.168,0,0,0-.221-.943,1.087,1.087,0,0,0-.87-.363A1.471,1.471,0,0,0,7.976,5.018Zm5.015,2.619a.231.231,0,0,1-.224-.268L13.885.2A.229.229,0,0,1,14.11,0h1.258a.231.231,0,0,1,.224.268L14.49,7.31a.381.381,0,0,1-.374.327Zm-12.764,0A.231.231,0,0,1,0,7.368L1.1.327A.381.381,0,0,1,1.479,0H4.2A2.5,2.5,0,0,1,6.189.712a2.183,2.183,0,0,1,.348,1.8,2.817,2.817,0,0,1-3.1,2.649H2.574a.382.382,0,0,0-.374.327L1.887,7.408a.267.267,0,0,1-.262.229Zm2.55-5.894L2.488,3.61H2.9c.722,0,1.47,0,1.618-1a.948.948,0,0,0-.132-.777c-.24-.286-.7-.286-1.2-.286H3A.228.228,0,0,0,2.777,1.742Z" transform="translate(19.433)" fill="#199ddb"/>
    </g>
    <path id="Glare" d="M490.583,244.439A2.636,2.636,0,0,1,488,241.758V214.69a2.636,2.636,0,0,1,2.588-2.682h40.264a2.636,2.636,0,0,1,2.588,2.682" transform="translate(-487.996 -212.004)" fill="#fff" opacity="0.122"/>
    <rect id="Shadow" width="45.437" height="32.456" rx="4" transform="translate(0.002 0)" fill="rgba(255,255,255,0)"/>
  </g>
</svg>
