<svg xmlns="http://www.w3.org/2000/svg" width="23.998" height="24" viewBox="0 0 23.998 24">
  <g id="pillow" transform="translate(-0.003)">
    <g id="Grupo_1347" data-name="Grupo 1347" transform="translate(0.001)">
      <g id="Grupo_1346" data-name="Grupo 1346">
        <path id="Caminho_2058" data-name="Caminho 2058" d="M24,7.5A7.462,7.462,0,0,0,22.85,3.505L23.969.639a.469.469,0,0,0-.607-.607L20.5,1.151A7.461,7.461,0,0,0,16.5,0h-9A7.461,7.461,0,0,0,3.506,1.151L.64.032A.469.469,0,0,0,.033.639L1.152,3.505A7.461,7.461,0,0,0,0,7.5v9a7.461,7.461,0,0,0,1.151,3.995L.033,23.361a.469.469,0,0,0,.607.607l2.866-1.119A7.461,7.461,0,0,0,7.5,24h9A7.462,7.462,0,0,0,20.5,22.849l2.866,1.119a.469.469,0,0,0,.607-.607L22.85,20.495A7.461,7.461,0,0,0,24,16.5ZM13.424.937,11.978,2.384,10.531.937ZM.939,10.577l1.446,1.446L.939,13.47Zm9.546,12.485,1.493-1.493,1.493,1.493ZM23.063,16.5a6.527,6.527,0,0,1-1.126,3.677.469.469,0,0,0-.049.434l.818,2.095-2.095-.818a.468.468,0,0,0-.434.049A6.528,6.528,0,0,1,16.5,23.062H14.8l-2.488-2.488a.469.469,0,0,0-.663,0L9.158,23.062H7.5a6.528,6.528,0,0,1-3.677-1.126.468.468,0,0,0-.434-.049L1.3,22.705l.818-2.095a.469.469,0,0,0-.049-.434A6.527,6.527,0,0,1,.938,16.5V14.8l2.441-2.441a.469.469,0,0,0,0-.663L.938,9.251V7.5A6.528,6.528,0,0,1,2.065,3.823a.469.469,0,0,0,.049-.434L1.3,1.294l2.095.818a.468.468,0,0,0,.434-.049A6.528,6.528,0,0,1,7.5.937h1.7l2.441,2.441a.469.469,0,0,0,.663,0L14.75.937H16.5a6.528,6.528,0,0,1,3.677,1.126.468.468,0,0,0,.434.049l2.095-.818-.818,2.095a.469.469,0,0,0,.049.434A6.527,6.527,0,0,1,23.063,7.5V9.251l-2.441,2.441a.469.469,0,0,0,0,.663L23.063,14.8Zm0-3.03-1.446-1.446,1.446-1.446Z" transform="translate(-0.001)" fill="#fff"/>
        <path id="Caminho_2059" data-name="Caminho 2059" d="M196.966,194.22l-2.582-2.582a.47.47,0,0,0-.664,0l-2.582,2.582a.47.47,0,0,0,0,.664l2.582,2.582a.469.469,0,0,0,.664,0l2.582-2.582A.469.469,0,0,0,196.966,194.22Zm-2.914,2.25-1.918-1.918,1.918-1.918,1.918,1.918Z" transform="translate(-182.052 -182.529)" fill="#fff"/>
        <path id="Caminho_2060" data-name="Caminho 2060" d="M316.22,73.966a.469.469,0,0,0,.664,0l2.582-2.582a.47.47,0,0,0,0-.664l-2.582-2.582a.47.47,0,0,0-.664,0l-2.582,2.582a.47.47,0,0,0,0,.664Zm.332-4.832,1.918,1.918-1.918,1.918-1.918-1.918Z" transform="translate(-298.819 -64.809)" fill="#fff"/>
        <path id="Caminho_2061" data-name="Caminho 2061" d="M70.552,74.1a.468.468,0,0,0,.332-.137l2.582-2.582a.47.47,0,0,0,0-.664l-2.582-2.582a.47.47,0,0,0-.664,0l-2.582,2.582a.47.47,0,0,0,0,.664l2.582,2.582A.468.468,0,0,0,70.552,74.1Zm0-4.969,1.918,1.918-1.918,1.918-1.918-1.918Z" transform="translate(-64.332 -64.808)" fill="#fff"/>
        <path id="Caminho_2062" data-name="Caminho 2062" d="M316.22,314.138l-2.582,2.582a.47.47,0,0,0,0,.664l2.582,2.582a.469.469,0,0,0,.664,0l2.582-2.582a.47.47,0,0,0,0-.664l-2.582-2.582A.47.47,0,0,0,316.22,314.138Zm.332,4.832-1.918-1.918,1.918-1.918,1.918,1.918Z" transform="translate(-298.819 -299.296)" fill="#fff"/>
        <path id="Caminho_2063" data-name="Caminho 2063" d="M70.884,314.138a.47.47,0,0,0-.664,0l-2.582,2.582a.47.47,0,0,0,0,.664l2.582,2.582a.469.469,0,0,0,.664,0l2.582-2.582a.47.47,0,0,0,0-.664Zm-.332,4.832-1.918-1.918,1.918-1.918,1.918,1.918Z" transform="translate(-64.332 -299.296)" fill="#fff"/>
      </g>
    </g>
  </g>
</svg>
