<svg xmlns="http://www.w3.org/2000/svg" width="24" height="24" viewBox="0 0 24 24">
  <g id="plug" transform="translate(0 -1.976)">
    <g id="Grupo_1352" data-name="Grupo 1352" transform="translate(0 6.855)">
      <g id="Grupo_1351" data-name="Grupo 1351" transform="translate(0)">
        <path id="Caminho_2071" data-name="Caminho 2071" d="M5.286,118.863a2,2,0,0,0-2.308-.375A11.208,11.208,0,0,1,3,105.615a.472.472,0,0,0-.769-.548A12.09,12.09,0,0,0,2.256,119.1a2,2,0,1,0,3.03-.237Zm-.667,2.16a1.056,1.056,0,1,1,0-1.493A1.057,1.057,0,0,1,4.619,121.023Z" transform="translate(0 -104.869)" fill="#fff"/>
      </g>
    </g>
    <g id="Grupo_1354" data-name="Grupo 1354" transform="translate(6.419 4.403)">
      <g id="Grupo_1353" data-name="Grupo 1353" transform="translate(0 0)">
        <path id="Caminho_2072" data-name="Caminho 2072" d="M150.74,72.2a.471.471,0,0,0-.659-.106,10.994,10.994,0,0,1-4.508,1.922,1.292,1.292,0,0,1-1.527-1.269V69.278h.041a.993.993,0,0,0,.991-.992v-.8a4.259,4.259,0,0,0,2.737-3.974V61.278a1.8,1.8,0,0,0-.236-3.511V54.821a1.416,1.416,0,1,0-2.832,0V57.75h-2.36V54.821a1.416,1.416,0,1,0-2.832,0v2.945a1.8,1.8,0,0,0-.236,3.511v2.237a4.259,4.259,0,0,0,2.737,3.974v.8a.993.993,0,0,0,.991.992h.053v3.463a2.236,2.236,0,0,0,2.235,2.236,2.255,2.255,0,0,0,.4-.037,11.929,11.929,0,0,0,4.892-2.085A.473.473,0,0,0,150.74,72.2Zm-5.048-17.374a.472.472,0,1,1,.944,0V57.75h-.944Zm-5.191,0a.472.472,0,1,1,.944,0V57.75H140.5Zm-1.557,4.724a.851.851,0,0,1,.849-.85h7.551a.85.85,0,0,1,0,1.7h-7.551A.851.851,0,0,1,138.944,59.546Zm1.321,3.969V61.341h6.607v2.173a3.3,3.3,0,1,1-6.607,0Zm3.321,4.819h-.537a.047.047,0,0,1-.047-.047v-.558a4.251,4.251,0,0,0,1.133,0v.558a.047.047,0,0,1-.047.047Z" transform="translate(-138 -53.404)" fill="#fff"/>
      </g>
    </g>
    <g id="Grupo_1356" data-name="Grupo 1356" transform="translate(19.655 21.791)">
      <g id="Grupo_1355" data-name="Grupo 1355">
        <path id="Caminho_2073" data-name="Caminho 2073" d="M420.722,421.479a.472.472,0,0,0-.657.013l-.011.011a.472.472,0,0,0,.68.654l.011-.011A.472.472,0,0,0,420.722,421.479Z" transform="translate(-419.927 -421.352)" fill="#fff"/>
      </g>
    </g>
    <g id="Grupo_1358" data-name="Grupo 1358" transform="translate(4.724 1.976)">
      <g id="Grupo_1357" data-name="Grupo 1357" transform="translate(0 0)">
        <path id="Caminho_2074" data-name="Caminho 2074" d="M122.806,13.148a12.108,12.108,0,0,0-19.044-8.966.472.472,0,0,0,.545.771,11.267,11.267,0,0,1,14.325,1.2,11.073,11.073,0,0,1,1.124,14.439.472.472,0,1,0,.762.557A12.082,12.082,0,0,0,122.806,13.148Z" transform="translate(-103.563 -1.976)" fill="#fff"/>
      </g>
    </g>
    <g id="Grupo_1360" data-name="Grupo 1360" transform="translate(3.337 5.405)">
      <g id="Grupo_1359" data-name="Grupo 1359" transform="translate(0 0)">
        <path id="Caminho_2075" data-name="Caminho 2075" d="M71.518,74.784a.472.472,0,0,0-.667,0l-.008.008a.472.472,0,0,0,.67.664l.008-.008A.472.472,0,0,0,71.518,74.784Z" transform="translate(-70.706 -74.647)" fill="#fff"/>
      </g>
    </g>
    <g id="Grupo_1362" data-name="Grupo 1362" transform="translate(10.871 12.556)">
      <g id="Grupo_1361" data-name="Grupo 1361">
        <path id="Caminho_2076" data-name="Caminho 2076" d="M234.283,227.688a.472.472,0,0,0-.408-.234h-.337l.621-.785a.472.472,0,0,0-.74-.586l-1.227,1.549a.472.472,0,0,0,.37.765h.5l-.578,1.02a.472.472,0,1,0,.821.465l.977-1.725A.472.472,0,0,0,234.283,227.688Z" transform="translate(-232.091 -225.904)" fill="#fff"/>
      </g>
    </g>
  </g>
</svg>
