<svg id="Sale" xmlns="http://www.w3.org/2000/svg" width="22" height="23.997" viewBox="0 0 22 23.997">
  <path id="Caminho_42" data-name="Caminho 42" d="M42.925.79V17.731a.758.758,0,0,0,.42.671l10.045,5.476a.912.912,0,0,0,.449.118.966.966,0,0,0,.463-.118L64.52,18.061a.759.759,0,0,0,.405-.671V.79A.834.834,0,0,0,64.057,0H43.793A.834.834,0,0,0,42.925.79Zm1.737.79H63.188V16.955l-9.365,5.331-9.162-5V1.58Z" transform="translate(-42.925)" fill="#dc282d"/>
  <path id="Caminho_43" data-name="Caminho 43" d="M121.085,72.662a2.955,2.955,0,1,0-2.949,2.962A2.966,2.966,0,0,0,121.085,72.662Zm-4.331,0a1.376,1.376,0,1,1,1.382,1.382A1.382,1.382,0,0,1,116.755,72.662Z" transform="translate(-111.344 -66.462)" fill="#dc282d"/>
  <path id="Caminho_44" data-name="Caminho 44" d="M265.342,255.4a2.962,2.962,0,1,0,2.962-2.949A2.966,2.966,0,0,0,265.342,255.4Zm4.331,0a1.382,1.382,0,1,1-1.369-1.369A1.368,1.368,0,0,1,269.673,255.4Z" transform="translate(-253.548 -240.721)" fill="#dc282d"/>
  <path id="Caminho_45" data-name="Caminho 45" d="M161.723,83.668a.793.793,0,0,0-1.106.145l-8.24,10.847a.793.793,0,0,0,.145,1.106.818.818,0,0,0,.474.158.785.785,0,0,0,.632-.316l8.254-10.834A.784.784,0,0,0,161.723,83.668Z" transform="translate(-146.145 -79.627)" fill="#dc282d"/>
</svg>
