<svg xmlns="http://www.w3.org/2000/svg" width="32" height="28" viewBox="0 0 32 28">
  <g id="shopping-cart-2" transform="translate(0 -16.878)">
    <path id="Caminho_2109" data-name="Caminho 2109" d="M31.808,21.907a.92.92,0,0,0-.73-.361H7.623L6.6,17.574a.923.923,0,0,0-.892-.7H.922a.93.93,0,0,0,0,1.859H4.993L6.017,22.71h0l3.612,14a.923.923,0,0,0,.892.7H27.465a.923.923,0,0,0,.892-.7l3.613-14A.934.934,0,0,0,31.808,21.907ZM14.492,35.547H11.235L10.51,32.74h3.981Zm0-4.666H10.031l-.725-2.809h5.186v2.809Zm0-4.668H8.826L8.1,23.405h6.389Zm7.16,9.335H16.336V32.74h5.316Zm0-4.666H16.336V28.072h5.316Zm0-4.668H16.336V23.405h5.316Zm5.1,9.335H23.5V32.74h3.981Zm1.2-4.666H23.5V28.072h5.186Zm1.2-4.668H23.5V23.405h6.39Z" transform="translate(0 0)" fill="#fff"/>
    <path id="Caminho_2110" data-name="Caminho 2110" d="M81.447,188.62a3.361,3.361,0,1,0,3.361,3.361A3.365,3.365,0,0,0,81.447,188.62Zm0,4.883a1.521,1.521,0,1,1,1.521-1.521A1.523,1.523,0,0,1,81.447,193.5Z" transform="translate(-68.481 -150.465)" fill="#fff"/>
    <path id="Caminho_2111" data-name="Caminho 2111" d="M179.481,188.62a3.361,3.361,0,1,0,3.361,3.361A3.365,3.365,0,0,0,179.481,188.62Zm0,4.883A1.521,1.521,0,1,1,181,191.981,1.523,1.523,0,0,1,179.481,193.5Z" transform="translate(-154.447 -150.465)" fill="#fff"/>
  </g>
</svg>
