<svg xmlns="http://www.w3.org/2000/svg" width="24" height="24" viewBox="0 0 24 24">
  <g id="telephone-call-receiver" transform="translate(24) rotate(90)">
    <g id="Grupo_16" data-name="Grupo 16" transform="translate(0)">
      <path id="Caminho_26" data-name="Caminho 26" d="M2.279,22.411a1.637,1.637,0,0,0,.17.139l.849.524c.031.015.077.046.108.062A10.272,10.272,0,0,0,7.559,24,8.7,8.7,0,0,0,13.8,21.578l8.012-8.005c2.485-2.483,3.1-6.74,1.5-10.35a.624.624,0,0,0-.077-.139l-.54-.817c-.031-.046-.077-.093-.108-.139L21.144.694A2.363,2.363,0,0,0,19.477,0a2.176,2.176,0,0,0-1.528.632L13.781,4.8a2.266,2.266,0,0,0,.046,3.208L15.463,9.64,9.89,15.208,8.223,13.542a2.1,2.1,0,0,0-1.59-.679,2.26,2.26,0,0,0-1.575.648L.89,17.676A2.462,2.462,0,0,0,.2,19.28a2.228,2.228,0,0,0,.633,1.681ZM2.2,18.987,6.37,14.823a.4.4,0,0,1,.571.031l2.316,2.314a.942.942,0,0,0,1.312,0l6.87-6.864a.952.952,0,0,0,.278-.648.888.888,0,0,0-.278-.648L15.154,6.694a.436.436,0,0,1-.046-.6l4.168-4.165a.28.28,0,0,1,.216-.093.532.532,0,0,1,.355.154l1.358,1.357.448.679a7.5,7.5,0,0,1-1.142,8.206L12.5,20.267a6.871,6.871,0,0,1-4.94,1.882,8.369,8.369,0,0,1-3.335-.679l-.71-.432L2.141,19.666a.406.406,0,0,1-.093-.293A.729.729,0,0,1,2.2,18.987Z" transform="translate(-0.193)" fill="#dc282d"/>
    </g>
  </g>
</svg>
