<svg xmlns="http://www.w3.org/2000/svg" width="15.995" height="16" viewBox="0 0 15.995 16">
  <g id="telephone-call-receiver" transform="translate(15.995) rotate(90)">
    <g id="Grupo_16" data-name="Grupo 16" transform="translate(0)">
      <path id="Caminho_26" data-name="Caminho 26" d="M1.584,14.937a1.091,1.091,0,0,0,.113.093l.566.35c.021.01.051.031.072.041A6.85,6.85,0,0,0,5.1,16a5.8,5.8,0,0,0,4.158-1.614L14.6,9.046a6.289,6.289,0,0,0,1-6.9.416.416,0,0,0-.051-.093l-.36-.545c-.021-.031-.051-.062-.072-.093L14.16.463A1.576,1.576,0,0,0,13.049,0,1.451,1.451,0,0,0,12.03.421L9.251,3.2a1.51,1.51,0,0,0,.031,2.138l1.091,1.09L6.658,10.136,5.546,9.026a1.4,1.4,0,0,0-1.06-.452,1.507,1.507,0,0,0-1.05.432L.658,11.781A1.64,1.64,0,0,0,.195,12.85a1.485,1.485,0,0,0,.422,1.12Zm-.051-2.282L4.311,9.879a.265.265,0,0,1,.381.021l1.544,1.542a.628.628,0,0,0,.875,0l4.58-4.575a.634.634,0,0,0,.185-.432A.591.591,0,0,0,11.69,6L10.167,4.462a.291.291,0,0,1-.031-.4l2.779-2.776a.187.187,0,0,1,.144-.062.355.355,0,0,1,.237.1l.906.9.3.452a5,5,0,0,1-.762,5.469L8.4,13.508A4.581,4.581,0,0,1,5.1,14.762a5.581,5.581,0,0,1-2.223-.452l-.473-.288-.916-.915a.271.271,0,0,1-.062-.2A.486.486,0,0,1,1.532,12.655Z" transform="translate(-0.193)" fill="#fff"/>
    </g>
  </g>
</svg>
