<svg xmlns="http://www.w3.org/2000/svg" xmlns:xlink="http://www.w3.org/1999/xlink" width="15.998" height="18" viewBox="0 0 15.998 18">
  <defs>
    <clipPath id="clip-path">
      <path id="Caminho_1243" data-name="Caminho 1243" d="M272.719-935.371c6.315,0,6.736,1.638,6.736,1.638v5.446a8.155,8.155,0,0,1-4.29,7.138l-2.446,1.339-2.446-1.339a8.155,8.155,0,0,1-4.29-7.138v-5.446s0-1.638,6.736-1.638Zm0-1.229c-2.993,0-5.166.319-6.458.95-1.427.7-1.541,1.638-1.541,1.917v5.446a9.379,9.379,0,0,0,4.934,8.19l2.446,1.339a1.293,1.293,0,0,0,1.238,0l2.446-1.339a9.379,9.379,0,0,0,4.934-8.19v-5.446a1.2,1.2,0,0,0-.038-.3C280.432-934.991,279.072-936.6,272.719-936.6Z" transform="translate(-264.72 936.6)" fill="#fff" clip-rule="evenodd"/>
    </clipPath>
    <clipPath id="clip-path-2">
      <path id="Caminho_1242" data-name="Caminho 1242" d="M-80-1657.894H341V-2911H-80Z" transform="translate(80 2911)" fill="#fff"/>
    </clipPath>
    <clipPath id="clip-path-3">
      <path id="Caminho_1246" data-name="Caminho 1246" d="M277.82-917.184a.632.632,0,0,1-.446-.185l-2.947-2.947a.631.631,0,0,1,.016-.877.631.631,0,0,1,.877-.015l2.5,2.5L282-922.893a.632.632,0,0,1,.877.015.632.632,0,0,1,.016.877l-4.631,4.631a.632.632,0,0,1-.446.185Z" transform="translate(-274.257 923.063)" fill="#fff" clip-rule="evenodd"/>
    </clipPath>
    <clipPath id="clip-path-4">
      <path id="Caminho_1245" data-name="Caminho 1245" d="M-80-1622.746H341V-2911H-80Z" transform="translate(80 2911)" fill="#fff"/>
    </clipPath>
  </defs>
  <g id="Tradição_Icon" data-name="Tradição Icon" transform="translate(-609.72 -94.4)">
    <g id="Grupo_801" data-name="Grupo 801" transform="translate(609.72 94.4)" clip-path="url(#clip-path)">
      <g id="Grupo_800" data-name="Grupo 800" transform="translate(-145.126 -808.54)" clip-path="url(#clip-path-2)">
        <path id="Caminho_1241" data-name="Caminho 1241" d="M259.72-941.6h20.208v22.1H259.72Z" transform="translate(-116.699 1748.092)" fill="#fff"/>
      </g>
    </g>
    <g id="Grupo_803" data-name="Grupo 803" transform="translate(613.735 99.871)" clip-path="url(#clip-path-3)">
      <g id="Grupo_802" data-name="Grupo 802" transform="translate(-149.142 -836.918)" clip-path="url(#clip-path-4)">
        <path id="Caminho_1244" data-name="Caminho 1244" d="M269.257-928.063h13.019v10.088H269.257Z" transform="translate(-122.221 1762.876)" fill="#fff"/>
      </g>
    </g>
  </g>
</svg>
