<svg id="web-page-home" xmlns="http://www.w3.org/2000/svg" width="16" height="14" viewBox="0 0 16 14">
  <g id="Grupo_8" data-name="Grupo 8" transform="translate(0 0)">
    <path id="Caminho_14" data-name="Caminho 14" d="M.553,34.69h1.3v5.115a.555.555,0,0,0,.559.548H6.231a.555.555,0,0,0,.559-.548V36.061H9.117v3.745a.555.555,0,0,0,.559.548h3.63a.555.555,0,0,0,.559-.548V34.69h1.583a.559.559,0,0,0,.512-.338.543.543,0,0,0-.121-.594l-7.28-7.243a.564.564,0,0,0-.782-.009L.171,33.75a.545.545,0,0,0,.382.941Zm7.6-7.015,5.958,5.919h-.8a.555.555,0,0,0-.559.548v5.115H10.234V35.512a.555.555,0,0,0-.559-.548H6.231a.555.555,0,0,0-.559.548v3.745h-2.7V34.142a.555.555,0,0,0-.559-.548H1.93Z" transform="translate(0 -26.353)" fill="gray"/>
  </g>
</svg>
