<svg xmlns="http://www.w3.org/2000/svg" width="32" height="24" viewBox="0 0 32 24">
  <g id="wheelbarrow" transform="translate(0 -60.391)">
    <g id="Grupo_1350" data-name="Grupo 1350" transform="translate(0 60.391)">
      <path id="Caminho_2070" data-name="Caminho 2070" d="M0,65.142a.467.467,0,0,1,.529-.392l2.531.346a1.536,1.536,0,0,1,1.194.892l3.354,7.626a1.392,1.392,0,0,0,1.082.809l.8.11L7.42,69.243H7.4a.9.9,0,0,1-.9-.884l0-.662a.872.872,0,0,1,.264-.629.906.906,0,0,1,.64-.26h0l1.247,0a2.624,2.624,0,0,1,2.389-1.677,6.139,6.139,0,0,1,2.379-3.3,8.026,8.026,0,0,1,4.013-1.419c2.488-.189,4.569.753,5.417,2.419a4.057,4.057,0,0,1,3.887,2.421,3.107,3.107,0,0,1,2.616,1.637L31.1,66.9a.9.9,0,0,1,.9.884l0,.662a.872.872,0,0,1-.264.629.906.906,0,0,1-.64.26h0l-.917,0-6.794,7.1a2.982,2.982,0,0,1,1.779.94,3.826,3.826,0,0,1,2.493-.361,3.7,3.7,0,0,1,1.4,6.743,3.817,3.817,0,0,1-2.113.637,3.9,3.9,0,0,1-.733-.07,3.732,3.732,0,0,1-3-4.367A3.68,3.68,0,0,1,24.386,77.9a2.04,2.04,0,0,0-1.15-.563l-5.228-.715-3.283,5.159a2.207,2.207,0,0,1-2.152.987h0a2.152,2.152,0,0,1-1.86-2.417l.658-4.636-2.805-.384a2.333,2.333,0,0,1-1.813-1.356L3.4,66.353a.6.6,0,0,0-.462-.346L.4,65.661A.462.462,0,0,1,0,65.142ZM24.127,80.13a2.81,2.81,0,0,0,2.258,3.288,2.881,2.881,0,0,0,2.142-.427,2.787,2.787,0,0,0-1.051-5.077,2.884,2.884,0,0,0-1.758.213l.589.848a1.856,1.856,0,0,1,.876-.09,1.826,1.826,0,0,1,1.208.7,1.761,1.761,0,0,1,.353,1.331,1.779,1.779,0,0,1-.71,1.186,1.84,1.84,0,0,1-1.1.364,1.9,1.9,0,0,1-.257-.017,1.826,1.826,0,0,1-1.208-.7,1.772,1.772,0,0,1,.067-2.249l-.59-.851A2.769,2.769,0,0,0,24.127,80.13Zm3.516.007a.89.89,0,0,0-.59-.34.916.916,0,0,0-.125-.009.9.9,0,0,0-.537.177.868.868,0,0,0-.346.579.859.859,0,0,0,.172.65.891.891,0,0,0,.59.34.9.9,0,0,0,.662-.169.868.868,0,0,0,.346-.579h0A.859.859,0,0,0,27.644,80.137Zm-1.265-13.99a.468.468,0,0,1-.413-.3,3.16,3.16,0,0,0-3.007-2.092q-.176,0-.363.017a.47.47,0,0,1-.482-.291c-.584-1.472-2.394-2.314-4.612-2.146a7.066,7.066,0,0,0-3.533,1.246,5.214,5.214,0,0,0-2.11,3.128.467.467,0,0,1-.5.359c-.069-.007-.136-.01-.2-.01h0a1.675,1.675,0,0,0-1.447.763l18.543.071A2.859,2.859,0,0,0,26.378,66.147ZM12.7,81.859a1.255,1.255,0,0,0,1.228-.563l3.062-4.811L12.3,75.845l-.658,4.636A1.227,1.227,0,0,0,12.7,81.859ZM11,74.738l.964.132h0l5.872.8h0l4.036.552a.838.838,0,0,0,.688-.276L28.9,69.325l-1.627-.006a.46.46,0,1,1,0-.92h0l3.79.014,0-.595-23.627-.09,0,.594,16.478.063a.46.46,0,1,1,0,.92h0L8.426,69.247l1.968,5.011A.774.774,0,0,0,11,74.738Z" transform="translate(0 -60.391)" fill="#fff"/>
    </g>
  </g>
</svg>
